<mxfile host="app.diagrams.net" agent="Mozilla/5.0 (Windows NT 10.0; Win64; x64) AppleWebKit/537.36 (KHTML, like Gecko) Chrome/135.0.0.0 Safari/537.36" version="26.2.13">
  <diagram name="페이지-1" id="UAVEHCAYDjooohwOFna2">
    <mxGraphModel dx="985" dy="536" grid="1" gridSize="10" guides="1" tooltips="1" connect="1" arrows="1" fold="1" page="1" pageScale="1" pageWidth="827" pageHeight="1169" math="0" shadow="0">
      <root>
        <mxCell id="0" />
        <mxCell id="1" parent="0" />
        <mxCell id="ZkwlUfc5PT8kOh6R0UAv-2" value="Actor" style="shape=umlActor;verticalLabelPosition=bottom;verticalAlign=top;html=1;outlineConnect=0;" vertex="1" parent="1">
          <mxGeometry x="60" width="30" height="60" as="geometry" />
        </mxCell>
        <mxCell id="ZkwlUfc5PT8kOh6R0UAv-4" value="&lt;font style=&quot;font-size: 10px;&quot;&gt;서비스 요청&lt;/font&gt;" style="text;html=1;align=center;verticalAlign=middle;whiteSpace=wrap;rounded=0;fillColor=#60a917;fontColor=#ffffff;strokeColor=#2D7600;" vertex="1" parent="1">
          <mxGeometry x="120" y="80" width="80" height="30" as="geometry" />
        </mxCell>
        <mxCell id="ZkwlUfc5PT8kOh6R0UAv-6" style="edgeStyle=orthogonalEdgeStyle;rounded=0;orthogonalLoop=1;jettySize=auto;html=1;exitX=0.5;exitY=1;exitDx=0;exitDy=0;" edge="1" parent="1">
          <mxGeometry relative="1" as="geometry">
            <mxPoint x="160" y="160" as="sourcePoint" />
            <mxPoint x="160" y="160" as="targetPoint" />
          </mxGeometry>
        </mxCell>
        <mxCell id="ZkwlUfc5PT8kOh6R0UAv-28" style="edgeStyle=orthogonalEdgeStyle;rounded=0;orthogonalLoop=1;jettySize=auto;html=1;" edge="1" parent="1" source="ZkwlUfc5PT8kOh6R0UAv-7" target="ZkwlUfc5PT8kOh6R0UAv-8">
          <mxGeometry relative="1" as="geometry">
            <Array as="points">
              <mxPoint x="160" y="130" />
              <mxPoint x="160" y="130" />
            </Array>
          </mxGeometry>
        </mxCell>
        <mxCell id="ZkwlUfc5PT8kOh6R0UAv-7" value="USER" style="rounded=0;whiteSpace=wrap;html=1;" vertex="1" parent="1">
          <mxGeometry x="40" y="80" width="80" height="520" as="geometry" />
        </mxCell>
        <mxCell id="ZkwlUfc5PT8kOh6R0UAv-14" style="edgeStyle=orthogonalEdgeStyle;rounded=0;orthogonalLoop=1;jettySize=auto;html=1;" edge="1" parent="1" source="ZkwlUfc5PT8kOh6R0UAv-8" target="ZkwlUfc5PT8kOh6R0UAv-9">
          <mxGeometry relative="1" as="geometry">
            <Array as="points">
              <mxPoint x="320" y="190" />
              <mxPoint x="320" y="190" />
            </Array>
          </mxGeometry>
        </mxCell>
        <mxCell id="ZkwlUfc5PT8kOh6R0UAv-29" style="edgeStyle=orthogonalEdgeStyle;rounded=0;orthogonalLoop=1;jettySize=auto;html=1;" edge="1" parent="1" source="ZkwlUfc5PT8kOh6R0UAv-8" target="ZkwlUfc5PT8kOh6R0UAv-7">
          <mxGeometry relative="1" as="geometry">
            <Array as="points">
              <mxPoint x="160" y="540" />
              <mxPoint x="160" y="540" />
            </Array>
          </mxGeometry>
        </mxCell>
        <mxCell id="ZkwlUfc5PT8kOh6R0UAv-8" value="Front Web Page" style="rounded=0;whiteSpace=wrap;html=1;" vertex="1" parent="1">
          <mxGeometry x="200" y="80" width="80" height="520" as="geometry" />
        </mxCell>
        <mxCell id="ZkwlUfc5PT8kOh6R0UAv-17" style="edgeStyle=orthogonalEdgeStyle;rounded=0;orthogonalLoop=1;jettySize=auto;html=1;entryX=0;entryY=0.5;entryDx=0;entryDy=0;" edge="1" parent="1">
          <mxGeometry relative="1" as="geometry">
            <mxPoint x="440" y="219.9999999999999" as="sourcePoint" />
            <mxPoint x="520" y="219.9999999999999" as="targetPoint" />
          </mxGeometry>
        </mxCell>
        <mxCell id="ZkwlUfc5PT8kOh6R0UAv-26" style="edgeStyle=orthogonalEdgeStyle;rounded=0;orthogonalLoop=1;jettySize=auto;html=1;" edge="1" parent="1" source="ZkwlUfc5PT8kOh6R0UAv-9" target="ZkwlUfc5PT8kOh6R0UAv-8">
          <mxGeometry relative="1" as="geometry" />
        </mxCell>
        <mxCell id="ZkwlUfc5PT8kOh6R0UAv-9" value="BACKEND SERVER" style="rounded=0;whiteSpace=wrap;html=1;" vertex="1" parent="1">
          <mxGeometry x="360" y="80" width="80" height="520" as="geometry" />
        </mxCell>
        <mxCell id="ZkwlUfc5PT8kOh6R0UAv-11" value="opt" style="shape=umlFrame;whiteSpace=wrap;html=1;pointerEvents=0;" vertex="1" parent="1">
          <mxGeometry x="140" y="150" width="520" height="430" as="geometry" />
        </mxCell>
        <mxCell id="ZkwlUfc5PT8kOh6R0UAv-12" value="&lt;font style=&quot;font-size: 10px;&quot;&gt;token &lt;br&gt;validate=true&lt;/font&gt;" style="text;html=1;align=left;verticalAlign=middle;resizable=0;points=[];autosize=1;strokeColor=none;fillColor=none;" vertex="1" parent="1">
          <mxGeometry x="140" y="175" width="80" height="40" as="geometry" />
        </mxCell>
        <mxCell id="ZkwlUfc5PT8kOh6R0UAv-15" value="&lt;font style=&quot;font-size: 10px;&quot;&gt;서비스 요청&lt;/font&gt;" style="text;html=1;align=center;verticalAlign=middle;whiteSpace=wrap;rounded=0;fillColor=#60a917;fontColor=#ffffff;strokeColor=#2D7600;" vertex="1" parent="1">
          <mxGeometry x="280" y="150" width="80" height="30" as="geometry" />
        </mxCell>
        <mxCell id="ZkwlUfc5PT8kOh6R0UAv-25" style="edgeStyle=orthogonalEdgeStyle;rounded=0;orthogonalLoop=1;jettySize=auto;html=1;" edge="1" parent="1" source="ZkwlUfc5PT8kOh6R0UAv-16" target="ZkwlUfc5PT8kOh6R0UAv-9">
          <mxGeometry relative="1" as="geometry">
            <Array as="points">
              <mxPoint x="460" y="320" />
              <mxPoint x="460" y="320" />
            </Array>
          </mxGeometry>
        </mxCell>
        <mxCell id="ZkwlUfc5PT8kOh6R0UAv-16" value="ES SERVER" style="rounded=0;whiteSpace=wrap;html=1;" vertex="1" parent="1">
          <mxGeometry x="520" y="80" width="80" height="520" as="geometry" />
        </mxCell>
        <mxCell id="ZkwlUfc5PT8kOh6R0UAv-18" value="&lt;font style=&quot;font-size: 10px;&quot;&gt;서비스 수행&lt;/font&gt;" style="text;html=1;align=center;verticalAlign=middle;whiteSpace=wrap;rounded=0;fillColor=#60a917;fontColor=#ffffff;strokeColor=#2D7600;" vertex="1" parent="1">
          <mxGeometry x="440" y="170" width="80" height="30" as="geometry" />
        </mxCell>
        <mxCell id="ZkwlUfc5PT8kOh6R0UAv-19" value="opt" style="shape=umlFrame;whiteSpace=wrap;html=1;pointerEvents=0;" vertex="1" parent="1">
          <mxGeometry x="300" y="250" width="310" height="180" as="geometry" />
        </mxCell>
        <mxCell id="ZkwlUfc5PT8kOh6R0UAv-20" value="&lt;font style=&quot;font-size: 10px;&quot;&gt;result != error&lt;/font&gt;" style="text;html=1;align=left;verticalAlign=middle;resizable=0;points=[];autosize=1;strokeColor=none;fillColor=none;" vertex="1" parent="1">
          <mxGeometry x="300" y="280" width="80" height="30" as="geometry" />
        </mxCell>
        <mxCell id="ZkwlUfc5PT8kOh6R0UAv-23" value="&lt;span style=&quot;font-size: 10px;&quot;&gt;결과 반환&lt;/span&gt;" style="text;html=1;align=center;verticalAlign=middle;whiteSpace=wrap;rounded=0;fillColor=#1ba1e2;fontColor=#ffffff;strokeColor=#006EAF;" vertex="1" parent="1">
          <mxGeometry x="440" y="265" width="80" height="30" as="geometry" />
        </mxCell>
        <mxCell id="ZkwlUfc5PT8kOh6R0UAv-27" value="&lt;span style=&quot;font-size: 10px;&quot;&gt;결과 반환&lt;/span&gt;" style="text;html=1;align=center;verticalAlign=middle;whiteSpace=wrap;rounded=0;fillColor=#1ba1e2;fontColor=#ffffff;strokeColor=#006EAF;" vertex="1" parent="1">
          <mxGeometry x="280" y="440" width="80" height="30" as="geometry" />
        </mxCell>
        <mxCell id="ZkwlUfc5PT8kOh6R0UAv-30" value="&lt;span style=&quot;font-size: 10px;&quot;&gt;결과 반환&lt;/span&gt;" style="text;html=1;align=center;verticalAlign=middle;whiteSpace=wrap;rounded=0;fillColor=#1ba1e2;fontColor=#ffffff;strokeColor=#006EAF;" vertex="1" parent="1">
          <mxGeometry x="120" y="490" width="80" height="30" as="geometry" />
        </mxCell>
      </root>
    </mxGraphModel>
  </diagram>
</mxfile>
